<svg width="251" height="236" viewBox="0 0 251 236" fill="none" xmlns="http://www.w3.org/2000/svg">
<path d="M226.15 135.738C226.15 163.724 214.688 188.951 196.308 207.083C178.324 225.017 153.423 235.857 125.952 235.857C98.6795 235.857 73.7783 224.82 55.5965 207.083C37.217 188.951 25.7545 163.724 25.7545 135.738C25.7545 80.3567 70.6163 35.6183 125.952 35.6183C181.288 35.6183 226.15 80.5538 226.15 135.738Z" fill="white" fill-opacity="0.04"/>
<path d="M233.562 70.1078C238.037 70.1078 241.665 66.49 241.665 62.0273C241.665 57.5646 238.037 53.9468 233.562 53.9468C229.087 53.9468 225.459 57.5646 225.459 62.0273C225.459 66.49 229.087 70.1078 233.562 70.1078Z" fill="#EAEEF9" fill-opacity="0.08"/>
<path d="M245.418 38.5742C248.474 38.5742 250.952 36.1036 250.952 33.0559C250.952 30.0081 248.474 27.5375 245.418 27.5375C242.362 27.5375 239.885 30.0081 239.885 33.0559C239.885 36.1036 242.362 38.5742 245.418 38.5742Z" fill="white" fill-opacity="0.1"/>
<path d="M45.0238 69.9103C48.08 69.9103 50.5575 67.4397 50.5575 64.392C50.5575 61.3442 48.08 58.8736 45.0238 58.8736C41.9677 58.8736 39.4902 61.3442 39.4902 64.392C39.4902 67.4397 41.9677 69.9103 45.0238 69.9103Z" fill="#EAEEF9" fill-opacity="0.08"/>
<path d="M11.2293 176.336C16.905 176.336 21.506 171.748 21.506 166.088C21.506 160.428 16.905 155.839 11.2293 155.839C5.55367 155.839 0.952637 160.428 0.952637 166.088C0.952637 171.748 5.55367 176.336 11.2293 176.336Z" fill="white" fill-opacity="0.1"/>
<path d="M194.332 89.8381L195.913 216.761C195.913 221.097 192.356 224.447 188.008 224.447H63.8969C59.549 224.447 55.9917 220.9 55.9917 216.761V53.5744C55.9917 49.2385 59.549 45.8881 63.8969 45.8881H153.818L194.332 89.8381Z" fill="url(#paint0_linear_104_12929)"/>
<path d="M120.616 72.4946H76.9399C75.5565 72.4946 74.3707 71.3121 74.3707 69.9325C74.3707 68.5529 75.5565 67.3704 76.9399 67.3704H120.616C121.999 67.3704 123.185 68.5529 123.185 69.9325C123.185 71.3121 121.999 72.4946 120.616 72.4946Z" fill="#322E46"/>
<path d="M99.8648 86.685H76.9399C75.5565 86.685 74.3707 85.5025 74.3707 84.1229C74.3707 82.7433 75.5565 81.5608 76.9399 81.5608H99.6672C101.051 81.5608 102.236 82.7433 102.236 84.1229C102.236 85.5025 101.051 86.685 99.8648 86.685Z" fill="#322E46"/>
<path d="M153.818 45.8881V80.9692C153.818 85.8964 158.166 89.8381 163.107 89.8381H194.332" fill="#3D3950"/>
<path d="M94.0023 72.0323L103.393 39.0008L141.963 43.4314L128.497 64.9578L138.928 73.2683L116.471 122.251L117.723 84.3289L94.0023 72.0323Z" fill="#130F25"/>
<path d="M102.337 34.171L94.8633 22.9521" stroke="#D9008D" stroke-width="2"/>
<path d="M122.268 28.5616L123.146 0.142853" stroke="#D9008D" stroke-width="2"/>
<path d="M140.137 34.4358L152.068 8.61249" stroke="#D9008D" stroke-width="2"/>
<path d="M99.5535 176.295C98.7233 176.295 98.0592 175.964 97.3951 175.467C96.2328 174.308 96.2328 172.321 97.3951 171.162C105.033 163.712 115.161 159.572 125.953 159.572C136.745 159.572 146.873 163.712 154.511 171.162C155.673 172.321 155.673 174.308 154.511 175.467C153.348 176.626 151.356 176.626 150.194 175.467C143.718 169.01 135.085 165.533 125.953 165.533C116.821 165.533 108.187 169.01 101.712 175.467C101.048 175.964 100.384 176.295 99.5535 176.295Z" fill="#989FB0"/>
<path d="M110.014 131.922L113.998 127.948C115.161 126.789 115.161 124.802 113.998 123.643C112.836 122.484 110.844 122.484 109.682 123.643L105.697 127.617L101.712 123.643C100.55 122.484 98.5573 122.484 97.3951 123.643C96.2328 124.802 96.2328 126.789 97.3951 127.948L101.38 131.922L97.3951 135.896C96.2328 137.055 96.2328 139.041 97.3951 140.201C98.0592 140.863 98.7233 141.028 99.5535 141.028C100.384 141.028 101.048 140.697 101.712 140.201L105.697 136.227L109.682 140.201C110.346 140.863 111.01 141.028 111.84 141.028C112.67 141.028 113.334 140.697 113.998 140.201C115.161 139.041 115.161 137.055 113.998 135.896L110.014 131.922Z" fill="#989FB0"/>
<path d="M150.359 131.922L154.344 127.948C155.506 126.789 155.506 124.802 154.344 123.643C153.182 122.484 151.189 122.484 150.027 123.643L146.042 127.617L142.058 123.643C140.895 122.484 138.903 122.484 137.741 123.643C136.578 124.802 136.578 126.789 137.741 127.948L141.725 131.922L137.741 135.896C136.578 137.055 136.578 139.041 137.741 140.201C138.405 140.863 139.069 141.028 139.899 141.028C140.729 141.028 141.393 140.697 142.058 140.201L146.042 136.227L150.027 140.201C150.691 140.863 151.355 141.028 152.186 141.028C153.016 141.028 153.68 140.697 154.344 140.201C155.506 139.041 155.506 137.055 154.344 135.896L150.359 131.922Z" fill="#989FB0"/>
<defs>
<linearGradient id="paint0_linear_104_12929" x1="125.907" y1="41.7578" x2="125.907" y2="226.372" gradientUnits="userSpaceOnUse">
<stop stop-color="#262333"/>
<stop offset="0.9964" stop-color="#262333"/>
</linearGradient>
</defs>
</svg>
