<svg width="36" height="36" viewBox="0 0 36 36" fill="none" xmlns="http://www.w3.org/2000/svg">
<g clip-path="url(#clip0_731_16651)">
<path d="M0 18C0 27.9411 8.05888 36 18 36C27.9411 36 36 27.9411 36 18C36 8.05888 27.9411 0 18 0C8.05888 0 0 8.05888 0 18Z" fill="#D9008D"/>
<path d="M26.1788 8.15604C26.153 8.01049 26.0988 7.87145 26.0192 7.74686C25.9397 7.62228 25.8363 7.5146 25.7151 7.42997C25.594 7.34535 25.4573 7.28543 25.3129 7.25366C25.1685 7.22188 25.0193 7.21887 24.8738 7.24479L23.8726 7.42479L21.6901 11.2498L26.5726 10.3835L26.1788 8.15604ZM20.9926 7.93104L16.3688 8.75229L14.1863 12.5548L18.8101 11.7448L20.9926 7.93104ZM13.5001 9.25853L9.38255 9.97854C9.09337 10.0283 8.83506 10.189 8.66272 10.4265C8.49038 10.664 8.41766 10.9594 8.46005 11.2498L8.84255 13.4998L11.3063 13.061L13.5001 9.25853ZM9.00005 14.6248V24.7498C9.00005 25.3465 9.2371 25.9188 9.65906 26.3408C10.081 26.7627 10.6533 26.9998 11.2501 26.9998H24.7501C25.3468 26.9998 25.9191 26.7627 26.341 26.3408C26.763 25.9188 27.0001 25.3465 27.0001 24.7498V14.6248H9.00005ZM20.5426 21.7123L17.5501 23.9623C17.3829 24.0876 17.1842 24.164 16.9761 24.1827C16.768 24.2015 16.5588 24.1619 16.3719 24.0685C16.1851 23.9751 16.0279 23.8315 15.9181 23.6537C15.8082 23.476 15.7501 23.2712 15.7501 23.0623V18.5623C15.7501 18.3534 15.8082 18.1486 15.9181 17.9708C16.0279 17.7931 16.1851 17.6495 16.3719 17.5561C16.5588 17.4626 16.768 17.4231 16.9761 17.4418C17.1842 17.4606 17.3829 17.5369 17.5501 17.6623L20.5426 19.9123C20.6823 20.0171 20.7957 20.153 20.8738 20.3092C20.9519 20.4654 20.9926 20.6376 20.9926 20.8123C20.9926 20.9869 20.9519 21.1592 20.8738 21.3154C20.7957 21.4716 20.6823 21.6075 20.5426 21.7123Z" fill="white"/>
</g>
</svg>